<?xml version="1.0" standalone="no"?>
<!DOCTYPE svg PUBLIC "-//W3C//DTD SVG 20010904//EN"
 "http://www.w3.org/TR/2001/REC-SVG-20010904/DTD/svg10.dtd">
<svg version="1.0" xmlns="http://www.w3.org/2000/svg"
 width="700.000000pt" height="700.000000pt" viewBox="0 0 700.000000 700.000000"
 preserveAspectRatio="xMidYMid meet">
<metadata>
Created by potrace 1.14, written by Peter Selinger 2001-2017
</metadata>
<g transform="translate(0.000000,700.000000) scale(0.100000,-0.100000)"
fill="#000000" stroke="none">
<path d="M3278 6996 c-1 -2 -42 -6 -89 -10 -47 -4 -95 -8 -106 -10 -11 -3 -44
-7 -74 -11 -102 -12 -217 -34 -344 -67 -44 -11 -89 -22 -101 -24 -89 -17 -418
-141 -579 -220 -180 -87 -448 -247 -555 -331 -8 -6 -51 -40 -95 -74 -342 -266
-650 -623 -875 -1014 -47 -83 -170 -327 -170 -340 0 -3 -9 -24 -20 -48 -57
-123 -157 -435 -186 -582 -2 -11 -10 -54 -19 -95 -29 -147 -36 -200 -52 -370
-15 -165 -8 -592 12 -711 2 -13 6 -46 9 -74 9 -78 22 -152 51 -285 21 -96 91
-339 114 -395 5 -11 25 -65 46 -120 64 -170 213 -461 314 -615 271 -411 605
-747 1008 -1016 77 -52 145 -94 149 -94 4 0 15 -6 23 -14 47 -41 413 -212 576
-270 79 -27 261 -84 291 -90 10 -2 57 -13 104 -25 109 -26 200 -43 299 -57 25
-3 57 -8 71 -10 162 -25 683 -25 841 1 13 2 47 7 74 10 71 10 87 13 115 18 14
3 43 8 65 12 115 21 314 74 455 122 188 64 473 192 614 278 32 19 62 35 67 35
5 0 9 5 9 10 0 6 4 10 9 10 16 0 212 134 322 220 157 122 331 284 459 429 36
41 70 79 76 85 6 6 48 61 94 121 152 200 276 403 388 638 29 59 52 110 52 113
0 3 8 24 19 47 53 118 147 417 177 562 62 298 79 463 79 760 0 249 -13 425
-40 567 -3 13 -10 50 -16 83 -13 77 -48 233 -59 265 -4 14 -16 52 -25 85 -46
162 -126 367 -212 540 -63 129 -71 143 -127 240 -33 57 -157 247 -165 255 -4
3 -33 41 -66 85 -32 44 -69 91 -81 105 -12 14 -41 48 -64 75 -158 187 -431
433 -625 565 -27 18 -52 36 -55 39 -3 3 -14 12 -25 18 -11 7 -68 42 -126 77
-346 213 -838 398 -1199 452 -41 6 -77 12 -105 18 -11 2 -49 7 -85 10 -36 4
-78 9 -95 12 -34 5 -541 14 -547 10z"/>
</g>
</svg>
